<mxfile host="Electron" modified="2024-01-29T09:51:03.748Z" agent="Mozilla/5.0 (Windows NT 10.0; Win64; x64) AppleWebKit/537.36 (KHTML, like Gecko) draw.io/22.1.21 Chrome/120.0.6099.109 Electron/28.1.0 Safari/537.36" etag="mSVdS3Kmtp6E43eZ1_uK" version="22.1.21" type="device">
  <diagram name="Page-1" id="s9RppyxikxJmtYWtP8qy">
    <mxGraphModel dx="780" dy="920" grid="1" gridSize="10" guides="1" tooltips="1" connect="1" arrows="1" fold="1" page="0" pageScale="1" pageWidth="1169" pageHeight="827" math="0" shadow="0">
      <root>
        <mxCell id="0" />
        <mxCell id="1" parent="0" />
        <mxCell id="7EbKkH2AO26OjYXT7-rm-24" value="" style="rounded=0;whiteSpace=wrap;html=1;fontSize=16;fillColor=none;dashed=1;" vertex="1" parent="1">
          <mxGeometry x="330" y="122" width="450" height="168" as="geometry" />
        </mxCell>
        <mxCell id="7EbKkH2AO26OjYXT7-rm-22" value="" style="rounded=0;whiteSpace=wrap;html=1;fontSize=16;fillColor=none;dashed=1;" vertex="1" parent="1">
          <mxGeometry x="330" y="29" width="450" height="70" as="geometry" />
        </mxCell>
        <mxCell id="7EbKkH2AO26OjYXT7-rm-21" style="edgeStyle=none;curved=1;rounded=0;orthogonalLoop=1;jettySize=auto;html=1;entryX=0;entryY=0.25;entryDx=0;entryDy=0;fontSize=12;startSize=8;endSize=8;" edge="1" parent="1" source="7EbKkH2AO26OjYXT7-rm-1" target="7EbKkH2AO26OjYXT7-rm-24">
          <mxGeometry relative="1" as="geometry" />
        </mxCell>
        <mxCell id="7EbKkH2AO26OjYXT7-rm-1" value="&amp;lt;pkg&amp;gt;&amp;nbsp;Request" style="rounded=0;whiteSpace=wrap;html=1;fontSize=16;dashed=1;" vertex="1" parent="1">
          <mxGeometry x="80" y="100" width="160" height="34" as="geometry" />
        </mxCell>
        <mxCell id="7EbKkH2AO26OjYXT7-rm-23" style="edgeStyle=none;curved=1;rounded=0;orthogonalLoop=1;jettySize=auto;html=1;fontSize=12;startSize=8;endSize=8;" edge="1" parent="1" source="7EbKkH2AO26OjYXT7-rm-2" target="7EbKkH2AO26OjYXT7-rm-22">
          <mxGeometry relative="1" as="geometry" />
        </mxCell>
        <mxCell id="7EbKkH2AO26OjYXT7-rm-2" value="&amp;lt;pkg&amp;gt; Provider" style="rounded=0;whiteSpace=wrap;html=1;fontSize=16;dashed=1;" vertex="1" parent="1">
          <mxGeometry x="80" width="160" height="34" as="geometry" />
        </mxCell>
        <mxCell id="7EbKkH2AO26OjYXT7-rm-3" value="&amp;lt;pkg&amp;gt;&amp;nbsp;Bot" style="rounded=0;whiteSpace=wrap;html=1;fontSize=16;dashed=1;" vertex="1" parent="1">
          <mxGeometry x="80" y="230" width="160" height="34" as="geometry" />
        </mxCell>
        <mxCell id="7EbKkH2AO26OjYXT7-rm-6" value="ClientInterface" style="rounded=0;whiteSpace=wrap;html=1;fontSize=16;fillColor=#647687;fontColor=#ffffff;strokeColor=#314354;" vertex="1" parent="1">
          <mxGeometry x="510" y="150" width="140" height="40" as="geometry" />
        </mxCell>
        <mxCell id="7EbKkH2AO26OjYXT7-rm-12" style="edgeStyle=none;curved=1;rounded=0;orthogonalLoop=1;jettySize=auto;html=1;entryX=0.5;entryY=1;entryDx=0;entryDy=0;fontSize=12;startSize=8;endSize=8;endArrow=block;endFill=0;dashed=1;" edge="1" parent="1" source="7EbKkH2AO26OjYXT7-rm-7" target="7EbKkH2AO26OjYXT7-rm-6">
          <mxGeometry relative="1" as="geometry" />
        </mxCell>
        <mxCell id="7EbKkH2AO26OjYXT7-rm-7" value="ClientCert" style="rounded=0;whiteSpace=wrap;html=1;fontSize=16;fillColor=#6d8764;fontColor=#ffffff;strokeColor=#3A5431;" vertex="1" parent="1">
          <mxGeometry x="450" y="230" width="120" height="34" as="geometry" />
        </mxCell>
        <mxCell id="7EbKkH2AO26OjYXT7-rm-13" style="edgeStyle=none;curved=1;rounded=0;orthogonalLoop=1;jettySize=auto;html=1;entryX=0.5;entryY=1;entryDx=0;entryDy=0;fontSize=12;startSize=8;endSize=8;endArrow=block;endFill=0;dashed=1;" edge="1" parent="1" source="7EbKkH2AO26OjYXT7-rm-8" target="7EbKkH2AO26OjYXT7-rm-6">
          <mxGeometry relative="1" as="geometry" />
        </mxCell>
        <mxCell id="7EbKkH2AO26OjYXT7-rm-8" value="ClientCertLess" style="rounded=0;whiteSpace=wrap;html=1;fontSize=16;fillColor=#6d8764;fontColor=#ffffff;strokeColor=#3A5431;" vertex="1" parent="1">
          <mxGeometry x="600" y="230" width="120" height="34" as="geometry" />
        </mxCell>
        <mxCell id="7EbKkH2AO26OjYXT7-rm-14" style="edgeStyle=none;curved=1;rounded=0;orthogonalLoop=1;jettySize=auto;html=1;entryX=0.5;entryY=0;entryDx=0;entryDy=0;fontSize=12;startSize=8;endSize=8;" edge="1" parent="1" source="7EbKkH2AO26OjYXT7-rm-9" target="7EbKkH2AO26OjYXT7-rm-6">
          <mxGeometry relative="1" as="geometry" />
        </mxCell>
        <mxCell id="7EbKkH2AO26OjYXT7-rm-18" style="edgeStyle=none;curved=1;rounded=0;orthogonalLoop=1;jettySize=auto;html=1;entryX=0.25;entryY=1;entryDx=0;entryDy=0;fontSize=12;startSize=8;endSize=8;" edge="1" parent="1" source="7EbKkH2AO26OjYXT7-rm-9" target="7EbKkH2AO26OjYXT7-rm-17">
          <mxGeometry relative="1" as="geometry" />
        </mxCell>
        <mxCell id="7EbKkH2AO26OjYXT7-rm-26" style="edgeStyle=none;curved=1;rounded=0;orthogonalLoop=1;jettySize=auto;html=1;entryX=0.5;entryY=1;entryDx=0;entryDy=0;fontSize=12;startSize=8;endSize=8;dashed=1;endArrow=block;endFill=0;" edge="1" parent="1" source="7EbKkH2AO26OjYXT7-rm-9" target="7EbKkH2AO26OjYXT7-rm-25">
          <mxGeometry relative="1" as="geometry" />
        </mxCell>
        <mxCell id="7EbKkH2AO26OjYXT7-rm-9" value="Zkh" style="rounded=0;whiteSpace=wrap;html=1;fontSize=16;fillColor=#6d8764;fontColor=#ffffff;strokeColor=#3A5431;" vertex="1" parent="1">
          <mxGeometry x="380" y="50" width="120" height="30" as="geometry" />
        </mxCell>
        <mxCell id="7EbKkH2AO26OjYXT7-rm-15" style="edgeStyle=none;curved=1;rounded=0;orthogonalLoop=1;jettySize=auto;html=1;fontSize=12;startSize=8;endSize=8;" edge="1" parent="1" source="7EbKkH2AO26OjYXT7-rm-10" target="7EbKkH2AO26OjYXT7-rm-6">
          <mxGeometry relative="1" as="geometry" />
        </mxCell>
        <mxCell id="7EbKkH2AO26OjYXT7-rm-19" style="edgeStyle=none;curved=1;rounded=0;orthogonalLoop=1;jettySize=auto;html=1;entryX=0.5;entryY=1;entryDx=0;entryDy=0;fontSize=12;startSize=8;endSize=8;" edge="1" parent="1" source="7EbKkH2AO26OjYXT7-rm-10" target="7EbKkH2AO26OjYXT7-rm-17">
          <mxGeometry relative="1" as="geometry" />
        </mxCell>
        <mxCell id="7EbKkH2AO26OjYXT7-rm-27" style="edgeStyle=none;curved=1;rounded=0;orthogonalLoop=1;jettySize=auto;html=1;entryX=0.75;entryY=1;entryDx=0;entryDy=0;fontSize=12;startSize=8;endSize=8;dashed=1;endArrow=block;endFill=0;" edge="1" parent="1" source="7EbKkH2AO26OjYXT7-rm-10" target="7EbKkH2AO26OjYXT7-rm-25">
          <mxGeometry relative="1" as="geometry" />
        </mxCell>
        <mxCell id="7EbKkH2AO26OjYXT7-rm-10" value="Int" style="rounded=0;whiteSpace=wrap;html=1;fontSize=16;fillColor=#6d8764;fontColor=#ffffff;strokeColor=#3A5431;" vertex="1" parent="1">
          <mxGeometry x="510" y="50" width="120" height="30" as="geometry" />
        </mxCell>
        <mxCell id="7EbKkH2AO26OjYXT7-rm-20" style="edgeStyle=none;curved=1;rounded=0;orthogonalLoop=1;jettySize=auto;html=1;entryX=0.75;entryY=1;entryDx=0;entryDy=0;fontSize=12;startSize=8;endSize=8;" edge="1" parent="1" source="7EbKkH2AO26OjYXT7-rm-11" target="7EbKkH2AO26OjYXT7-rm-17">
          <mxGeometry relative="1" as="geometry" />
        </mxCell>
        <mxCell id="7EbKkH2AO26OjYXT7-rm-28" style="edgeStyle=none;curved=1;rounded=0;orthogonalLoop=1;jettySize=auto;html=1;fontSize=12;startSize=8;endSize=8;dashed=1;endArrow=block;endFill=0;" edge="1" parent="1" source="7EbKkH2AO26OjYXT7-rm-11" target="7EbKkH2AO26OjYXT7-rm-25">
          <mxGeometry relative="1" as="geometry" />
        </mxCell>
        <mxCell id="7EbKkH2AO26OjYXT7-rm-11" value="Com" style="rounded=0;whiteSpace=wrap;html=1;fontSize=16;fillColor=#6d8764;fontColor=#ffffff;strokeColor=#3A5431;" vertex="1" parent="1">
          <mxGeometry x="640" y="50" width="120" height="30" as="geometry" />
        </mxCell>
        <mxCell id="7EbKkH2AO26OjYXT7-rm-16" style="edgeStyle=none;curved=1;rounded=0;orthogonalLoop=1;jettySize=auto;html=1;entryX=0.448;entryY=0.023;entryDx=0;entryDy=0;entryPerimeter=0;fontSize=12;startSize=8;endSize=8;" edge="1" parent="1" source="7EbKkH2AO26OjYXT7-rm-11" target="7EbKkH2AO26OjYXT7-rm-6">
          <mxGeometry relative="1" as="geometry" />
        </mxCell>
        <mxCell id="7EbKkH2AO26OjYXT7-rm-17" value="Config" style="rounded=0;whiteSpace=wrap;html=1;fontSize=16;fillColor=#6d8764;fontColor=#ffffff;strokeColor=#3A5431;" vertex="1" parent="1">
          <mxGeometry x="630" y="-80" width="120" height="30" as="geometry" />
        </mxCell>
        <mxCell id="7EbKkH2AO26OjYXT7-rm-25" value="ProviderInterface" style="rounded=0;whiteSpace=wrap;html=1;fontSize=16;fillColor=#647687;fontColor=#ffffff;strokeColor=#314354;" vertex="1" parent="1">
          <mxGeometry x="290" y="-80" width="160" height="40" as="geometry" />
        </mxCell>
        <mxCell id="7EbKkH2AO26OjYXT7-rm-29" value="Parser" style="rounded=0;whiteSpace=wrap;html=1;fontSize=16;fillColor=#6d8764;fontColor=#ffffff;strokeColor=#3A5431;" vertex="1" parent="1">
          <mxGeometry x="520" y="320" width="120" height="34" as="geometry" />
        </mxCell>
        <mxCell id="7EbKkH2AO26OjYXT7-rm-33" value="Zkh" style="swimlane;fontStyle=1;align=center;verticalAlign=top;childLayout=stackLayout;horizontal=1;startSize=26;horizontalStack=0;resizeParent=1;resizeParentMax=0;resizeLast=0;collapsible=1;marginBottom=0;whiteSpace=wrap;html=1;fontSize=16;" vertex="1" parent="1">
          <mxGeometry x="980" y="9" width="210" height="100" as="geometry" />
        </mxCell>
        <mxCell id="7EbKkH2AO26OjYXT7-rm-34" value="- client: ClinetInterface" style="text;strokeColor=none;fillColor=none;align=left;verticalAlign=top;spacingLeft=4;spacingRight=4;overflow=hidden;rotatable=0;points=[[0,0.5],[1,0.5]];portConstraint=eastwest;whiteSpace=wrap;html=1;fontSize=16;" vertex="1" parent="7EbKkH2AO26OjYXT7-rm-33">
          <mxGeometry y="26" width="210" height="26" as="geometry" />
        </mxCell>
        <mxCell id="7EbKkH2AO26OjYXT7-rm-35" value="" style="line;strokeWidth=1;fillColor=none;align=left;verticalAlign=middle;spacingTop=-1;spacingLeft=3;spacingRight=3;rotatable=0;labelPosition=right;points=[];portConstraint=eastwest;strokeColor=inherit;fontSize=16;" vertex="1" parent="7EbKkH2AO26OjYXT7-rm-33">
          <mxGeometry y="52" width="210" height="8" as="geometry" />
        </mxCell>
        <mxCell id="7EbKkH2AO26OjYXT7-rm-36" value="+ Login(): ([]Parser, error)&lt;br&gt;" style="text;strokeColor=none;fillColor=none;align=left;verticalAlign=top;spacingLeft=4;spacingRight=4;overflow=hidden;rotatable=0;points=[[0,0.5],[1,0.5]];portConstraint=eastwest;whiteSpace=wrap;html=1;fontSize=16;" vertex="1" parent="7EbKkH2AO26OjYXT7-rm-33">
          <mxGeometry y="60" width="210" height="40" as="geometry" />
        </mxCell>
        <mxCell id="7EbKkH2AO26OjYXT7-rm-37" value="Com" style="swimlane;fontStyle=1;align=center;verticalAlign=top;childLayout=stackLayout;horizontal=1;startSize=26;horizontalStack=0;resizeParent=1;resizeParentMax=0;resizeLast=0;collapsible=1;marginBottom=0;whiteSpace=wrap;html=1;fontSize=16;" vertex="1" parent="1">
          <mxGeometry x="990" y="149" width="210" height="100" as="geometry" />
        </mxCell>
        <mxCell id="7EbKkH2AO26OjYXT7-rm-38" value="- client: ClinetInterface" style="text;strokeColor=none;fillColor=none;align=left;verticalAlign=top;spacingLeft=4;spacingRight=4;overflow=hidden;rotatable=0;points=[[0,0.5],[1,0.5]];portConstraint=eastwest;whiteSpace=wrap;html=1;fontSize=16;" vertex="1" parent="7EbKkH2AO26OjYXT7-rm-37">
          <mxGeometry y="26" width="210" height="26" as="geometry" />
        </mxCell>
        <mxCell id="7EbKkH2AO26OjYXT7-rm-39" value="" style="line;strokeWidth=1;fillColor=none;align=left;verticalAlign=middle;spacingTop=-1;spacingLeft=3;spacingRight=3;rotatable=0;labelPosition=right;points=[];portConstraint=eastwest;strokeColor=inherit;fontSize=16;" vertex="1" parent="7EbKkH2AO26OjYXT7-rm-37">
          <mxGeometry y="52" width="210" height="8" as="geometry" />
        </mxCell>
        <mxCell id="7EbKkH2AO26OjYXT7-rm-40" value="+ Login(): ([]Parser, error)" style="text;strokeColor=none;fillColor=none;align=left;verticalAlign=top;spacingLeft=4;spacingRight=4;overflow=hidden;rotatable=0;points=[[0,0.5],[1,0.5]];portConstraint=eastwest;whiteSpace=wrap;html=1;fontSize=16;" vertex="1" parent="7EbKkH2AO26OjYXT7-rm-37">
          <mxGeometry y="60" width="210" height="40" as="geometry" />
        </mxCell>
      </root>
    </mxGraphModel>
  </diagram>
</mxfile>
